<svg xmlns="http://www.w3.org/2000/svg" version="1.1" xmlns:xlink="http://www.w3.org/1999/xlink" xmlns:svgjs="http://svgjs.dev/svgjs" width="1000" height="146" viewBox="0 0 1000 146"><g transform="matrix(1,0,0,1,-0.6060605358446196,0.22690470140335606)"><svg viewBox="0 0 396 58" data-background-color="#ffffff" preserveAspectRatio="xMidYMid meet" height="146" width="1000" xmlns="http://www.w3.org/2000/svg" xmlns:xlink="http://www.w3.org/1999/xlink"><defs></defs><g id="tight-bounds" transform="matrix(1,0,0,1,0.2400000278055927,-0.09014022384516807)"><svg viewBox="0 0 395.52 58.18028044769034" height="58.18028044769034" width="395.52"><g><svg viewBox="0 0 477.81146658832415 70.28520713802317" height="58.18028044769034" width="395.52"><g transform="matrix(1,0,0,1,0,9.713802144256462)"><svg viewBox="0 0 395.52 50.85760284951024" height="50.85760284951024" width="395.52"><g><svg viewBox="0 0 395.52 50.85760284951024" height="50.85760284951024" width="395.52"><g><svg viewBox="0 0 395.52 50.85760284951024" height="50.85760284951024" width="395.52"><g transform="matrix(1,0,0,1,0,0)"><svg width="395.52" viewBox="2.450000047683716 -35.5 280.72998046875 36.099998474121094" height="50.85760284951024" data-palette-color="#0074d9"><path d="M16 0.6L16 0.6Q12.85 0.6 10.35-0.43 7.85-1.45 6.08-3.65 4.3-5.85 3.38-9.28 2.45-12.7 2.45-17.45L2.45-17.45Q2.45-22.2 3.38-25.63 4.3-29.05 6.08-31.25 7.85-33.45 10.35-34.48 12.85-35.5 16-35.5L16-35.5Q19.15-35.5 21.65-34.48 24.15-33.45 25.93-31.25 27.7-29.05 28.63-25.63 29.55-22.2 29.55-17.45L29.55-17.45Q29.55-12.7 28.63-9.28 27.7-5.85 25.93-3.65 24.15-1.45 21.65-0.43 19.15 0.6 16 0.6ZM16-4.1L16-4.1Q19.75-4.1 21.8-6.53 23.85-8.95 23.85-13.25L23.85-13.25 23.85-21.65Q23.85-25.95 21.8-28.38 19.75-30.8 16-30.8L16-30.8Q12.25-30.8 10.2-28.38 8.15-25.95 8.15-21.65L8.15-21.65 8.15-13.25Q8.15-8.95 10.2-6.53 12.25-4.1 16-4.1ZM54.25 0L43.85-20.95 41.2-27.45 40.55-27.45 40.95-20.85 40.95 0 35.85 0 35.85-34.9 41.95-34.9 52.35-13.95 55.05-7.45 55.7-7.45 55.3-14.05 55.3-34.9 60.4-34.9 60.4 0 54.25 0ZM86.09 0L68.09 0 68.09-34.9 73.4-34.9 73.4-4.65 86.09-4.65 86.09 0ZM103.79 0L89.99 0 89.99-4.25 94.24-4.25 94.24-30.65 89.99-30.65 89.99-34.9 103.79-34.9 103.79-30.65 99.54-30.65 99.54-4.25 103.79-4.25 103.79 0ZM128.59 0L118.19-20.95 115.54-27.45 114.89-27.45 115.29-20.85 115.29 0 110.19 0 110.19-34.9 116.29-34.9 126.69-13.95 129.39-7.45 130.04-7.45 129.64-14.05 129.64-34.9 134.74-34.9 134.74 0 128.59 0ZM162.69 0L142.44 0 142.44-34.9 162.69-34.9 162.69-30.25 147.74-30.25 147.74-20.05 161.24-20.05 161.24-15.45 147.74-15.45 147.74-4.65 162.69-4.65 162.69 0ZM178.69 0.6L178.69 0.6Q174.79 0.6 171.91-0.88 169.04-2.35 166.99-5.15L166.99-5.15 170.64-8.5Q172.19-6.35 174.19-5.2 176.19-4.05 178.74-4.05L178.74-4.05Q184.94-4.05 184.94-9.75L184.94-9.75Q184.94-12.05 183.84-13.28 182.74-14.5 180.04-15.15L180.04-15.15 177.19-15.75Q172.49-16.8 170.26-19.13 168.04-21.45 168.04-25.65L168.04-25.65Q168.04-30.5 170.96-33 173.89-35.5 179.14-35.5L179.14-35.5Q182.89-35.5 185.46-34.23 188.04-32.95 189.94-30.25L189.94-30.25 186.29-27.05Q184.94-28.95 183.26-29.9 181.59-30.85 179.04-30.85L179.04-30.85Q176.19-30.85 174.76-29.68 173.34-28.5 173.34-25.8L173.34-25.8Q173.34-23.6 174.46-22.48 175.59-21.35 178.14-20.75L178.14-20.75 180.99-20.1Q183.49-19.55 185.24-18.73 186.99-17.9 188.11-16.7 189.24-15.5 189.74-13.88 190.24-12.25 190.24-10.1L190.24-10.1Q190.24-4.85 187.21-2.13 184.19 0.6 178.69 0.6ZM215.33 0L215.33-15.45 201.43-15.45 201.43 0 196.13 0 196.13-34.9 201.43-34.9 201.43-20.05 215.33-20.05 215.33-34.9 220.63-34.9 220.63 0 215.33 0ZM240.48 0.6L240.48 0.6Q237.33 0.6 234.83-0.43 232.33-1.45 230.56-3.65 228.78-5.85 227.86-9.28 226.93-12.7 226.93-17.45L226.93-17.45Q226.93-22.2 227.86-25.63 228.78-29.05 230.56-31.25 232.33-33.45 234.83-34.48 237.33-35.5 240.48-35.5L240.48-35.5Q243.63-35.5 246.13-34.48 248.63-33.45 250.41-31.25 252.18-29.05 253.11-25.63 254.03-22.2 254.03-17.45L254.03-17.45Q254.03-12.7 253.11-9.28 252.18-5.85 250.41-3.65 248.63-1.45 246.13-0.43 243.63 0.6 240.48 0.6ZM240.48-4.1L240.48-4.1Q244.23-4.1 246.28-6.53 248.33-8.95 248.33-13.25L248.33-13.25 248.33-21.65Q248.33-25.95 246.28-28.38 244.23-30.8 240.48-30.8L240.48-30.8Q236.73-30.8 234.68-28.38 232.63-25.95 232.63-21.65L232.63-21.65 232.63-13.25Q232.63-8.95 234.68-6.53 236.73-4.1 240.48-4.1ZM265.63 0L260.33 0 260.33-34.9 274.13-34.9Q278.63-34.9 280.9-32.23 283.18-29.55 283.18-24.5L283.18-24.5Q283.18-19.45 280.9-16.78 278.63-14.1 274.13-14.1L274.13-14.1 265.63-14.1 265.63 0ZM265.63-30.2L265.63-18.8 273.68-18.8Q275.58-18.8 276.55-19.78 277.53-20.75 277.53-22.9L277.53-22.9 277.53-26.1Q277.53-28.25 276.55-29.23 275.58-30.2 273.68-30.2L273.68-30.2 265.63-30.2Z" opacity="1" transform="matrix(1,0,0,1,0,0)" fill="#0074d9" class="undefined-text-0" data-fill-palette-color="primary" id="text-0"></path></svg></g></svg></g></svg></g></svg></g><g transform="matrix(1,0,0,1,407.526259450301,0)"><svg viewBox="0 0 70.28520713802317 70.28520713802317" height="70.28520713802317" width="70.28520713802317"><g><svg xmlns="http://www.w3.org/2000/svg" xmlns:xlink="http://www.w3.org/1999/xlink" version="1.0" x="0" y="0" viewBox="1 1 48 48" enable-background="new 0 0 50 50" xml:space="preserve" height="70.28520713802317" width="70.28520713802317" class="icon-icon-0" data-fill-palette-color="accent" id="icon-0"><g fill="#0074d9" data-fill-palette-color="accent"><g fill="#0074d9" data-fill-palette-color="accent"><rect x="1" y="1" fill="#0074d9" width="23" height="5" data-fill-palette-color="accent"></rect><rect x="1" y="10" fill="#0074d9" width="23" height="5" data-fill-palette-color="accent"></rect><rect x="1" y="19" fill="#0074d9" width="23" height="5" data-fill-palette-color="accent"></rect></g><g fill="#0074d9" data-fill-palette-color="accent"><rect x="26" y="26" fill="#0074d9" width="23" height="5" data-fill-palette-color="accent"></rect><rect x="26" y="35" fill="#0074d9" width="23" height="5" data-fill-palette-color="accent"></rect><rect x="26" y="44" fill="#0074d9" width="23" height="5" data-fill-palette-color="accent"></rect></g><g fill="#0074d9" data-fill-palette-color="accent"><rect x="19" y="26" fill="#0074d9" width="5" height="23" data-fill-palette-color="accent"></rect><rect x="10" y="26" fill="#0074d9" width="5" height="23" data-fill-palette-color="accent"></rect><rect x="1" y="26" fill="#0074d9" width="5" height="23" data-fill-palette-color="accent"></rect></g><g fill="#0074d9" data-fill-palette-color="accent"><rect x="44" y="1" fill="#0074d9" width="5" height="23" data-fill-palette-color="accent"></rect><rect x="35" y="1" fill="#0074d9" width="5" height="23" data-fill-palette-color="accent"></rect><rect x="26" y="1" fill="#0074d9" width="5" height="23" data-fill-palette-color="accent"></rect></g></g></svg></g></svg></g></svg></g></svg><rect width="395.52" height="58.18028044769034" fill="none" stroke="none" visibility="hidden"></rect></g></svg></g></svg>