<svg xmlns="http://www.w3.org/2000/svg" version="1.1" xmlns:xlink="http://www.w3.org/1999/xlink" xmlns:svgjs="http://svgjs.dev/svgjs" width="1000" height="373" viewBox="0 0 1000 373"><g transform="matrix(1,0,0,1,-0.6060606060606233,-0.596266634291112)"><svg viewBox="0 0 396 148" data-background-color="#ffffff" preserveAspectRatio="xMidYMid meet" height="373" width="1000" xmlns="http://www.w3.org/2000/svg" xmlns:xlink="http://www.w3.org/1999/xlink"><defs></defs><g id="tight-bounds" transform="matrix(1,0,0,1,0.2400000000000091,0.236588369638298)"><svg viewBox="0 0 395.52 147.5268232607234" height="147.5268232607234" width="395.52"><g><svg viewBox="0 0 662.7441833218836 247.2" height="147.5268232607234" width="395.52"><g><svg viewBox="0 0 373.5390581717451 247.2" height="247.2" width="373.5390581717451"><g><svg viewBox="0 0 373.5390581717451 247.2" height="247.2" width="373.5390581717451"><g><svg viewBox="0 0 373.5390581717451 247.2" height="247.2" width="373.5390581717451"><g transform="matrix(1,0,0,1,0,0)"><svg width="373.5390581717451" viewBox="2.45 -35.5 54.55 36.1" height="247.2" data-palette-color="#0074d9"><path d="M16 0.6L16 0.6Q12.85 0.6 10.35-0.43 7.85-1.45 6.08-3.65 4.3-5.85 3.38-9.28 2.45-12.7 2.45-17.45L2.45-17.45Q2.45-22.2 3.38-25.63 4.3-29.05 6.08-31.25 7.85-33.45 10.35-34.48 12.85-35.5 16-35.5L16-35.5Q19.15-35.5 21.65-34.48 24.15-33.45 25.93-31.25 27.7-29.05 28.63-25.63 29.55-22.2 29.55-17.45L29.55-17.45Q29.55-12.7 28.63-9.28 27.7-5.85 25.93-3.65 24.15-1.45 21.65-0.43 19.15 0.6 16 0.6ZM16-4.1L16-4.1Q19.75-4.1 21.8-6.53 23.85-8.95 23.85-13.25L23.85-13.25 23.85-21.65Q23.85-25.95 21.8-28.38 19.75-30.8 16-30.8L16-30.8Q12.25-30.8 10.2-28.38 8.15-25.95 8.15-21.65L8.15-21.65 8.15-13.25Q8.15-8.95 10.2-6.53 12.25-4.1 16-4.1ZM45.45 0.6L45.45 0.6Q41.55 0.6 38.67-0.88 35.8-2.35 33.75-5.15L33.75-5.15 37.4-8.5Q38.95-6.35 40.95-5.2 42.95-4.05 45.5-4.05L45.5-4.05Q51.7-4.05 51.7-9.75L51.7-9.75Q51.7-12.05 50.6-13.28 49.5-14.5 46.8-15.15L46.8-15.15 43.95-15.75Q39.25-16.8 37.02-19.13 34.8-21.45 34.8-25.65L34.8-25.65Q34.8-30.5 37.72-33 40.65-35.5 45.9-35.5L45.9-35.5Q49.65-35.5 52.22-34.23 54.8-32.95 56.7-30.25L56.7-30.25 53.05-27.05Q51.7-28.95 50.02-29.9 48.35-30.85 45.8-30.85L45.8-30.85Q42.95-30.85 41.52-29.68 40.1-28.5 40.1-25.8L40.1-25.8Q40.1-23.6 41.22-22.48 42.35-21.35 44.9-20.75L44.9-20.75 47.75-20.1Q50.25-19.55 52-18.73 53.75-17.9 54.87-16.7 56-15.5 56.5-13.88 57-12.25 57-10.1L57-10.1Q57-4.85 53.97-2.13 50.95 0.6 45.45 0.6Z" opacity="1" transform="matrix(1,0,0,1,0,0)" fill="#0074d9" class="undefined-text-0" data-fill-palette-color="primary" id="text-0"></path></svg></g></svg></g></svg></g></svg></g><g transform="matrix(1,0,0,1,431.8970453717451,8.176431024930764)"><svg viewBox="0 0 230.84713795013846 230.84713795013846" height="230.84713795013846" width="230.84713795013846"><g><svg xmlns="http://www.w3.org/2000/svg" xmlns:xlink="http://www.w3.org/1999/xlink" version="1.0" x="0" y="0" viewBox="1 1 48 48" enable-background="new 0 0 50 50" xml:space="preserve" height="230.84713795013846" width="230.84713795013846" class="icon-icon-0" data-fill-palette-color="accent" id="icon-0"><g fill="#0074d9" data-fill-palette-color="accent"><g fill="#0074d9" data-fill-palette-color="accent"><rect x="1" y="1" fill="#0074d9" width="23" height="5" data-fill-palette-color="accent"></rect><rect x="1" y="10" fill="#0074d9" width="23" height="5" data-fill-palette-color="accent"></rect><rect x="1" y="19" fill="#0074d9" width="23" height="5" data-fill-palette-color="accent"></rect></g><g fill="#0074d9" data-fill-palette-color="accent"><rect x="26" y="26" fill="#0074d9" width="23" height="5" data-fill-palette-color="accent"></rect><rect x="26" y="35" fill="#0074d9" width="23" height="5" data-fill-palette-color="accent"></rect><rect x="26" y="44" fill="#0074d9" width="23" height="5" data-fill-palette-color="accent"></rect></g><g fill="#0074d9" data-fill-palette-color="accent"><rect x="19" y="26" fill="#0074d9" width="5" height="23" data-fill-palette-color="accent"></rect><rect x="10" y="26" fill="#0074d9" width="5" height="23" data-fill-palette-color="accent"></rect><rect x="1" y="26" fill="#0074d9" width="5" height="23" data-fill-palette-color="accent"></rect></g><g fill="#0074d9" data-fill-palette-color="accent"><rect x="44" y="1" fill="#0074d9" width="5" height="23" data-fill-palette-color="accent"></rect><rect x="35" y="1" fill="#0074d9" width="5" height="23" data-fill-palette-color="accent"></rect><rect x="26" y="1" fill="#0074d9" width="5" height="23" data-fill-palette-color="accent"></rect></g></g></svg></g></svg></g></svg></g></svg><rect width="395.52" height="147.5268232607234" fill="none" stroke="none" visibility="hidden"></rect></g></svg></g></svg>